<svg width="100" height="100" viewBox="0 0 100 100" fill="none" xmlns="http://www.w3.org/2000/svg">
<path fill-rule="evenodd" clip-rule="evenodd" d="M50.0001 8.33316C26.9876 8.33317 8.3334 26.9873 8.3334 49.9998C8.3334 73.0123 26.9876 91.6665 50.0001 91.6665C73.0126 91.6665 91.6667 73.0123 91.6667 49.9998C91.6667 26.9873 73.0126 8.33316 50.0001 8.33316ZM41.5417 64.7082C40.9565 64.1222 40.6278 63.328 40.6278 62.4998C40.6278 61.6717 40.9565 60.8774 41.5417 60.2915L51.8334 49.9998L41.5417 39.7082C41.2347 39.4221 40.9885 39.0771 40.8177 38.6937C40.6468 38.3104 40.555 37.8966 40.5476 37.477C40.5402 37.0574 40.6174 36.6406 40.7746 36.2515C40.9317 35.8624 41.1657 35.5089 41.4624 35.2122C41.7592 34.9154 42.1126 34.6815 42.5017 34.5243C42.8909 34.3672 43.3077 34.29 43.7272 34.2974C44.1468 34.3048 44.5607 34.3966 44.944 34.5674C45.3273 34.7382 45.6723 34.9845 45.9584 35.2915L58.4584 47.7915C59.0436 48.3774 59.3723 49.1717 59.3723 49.9998C59.3723 50.828 59.0436 51.6222 58.4584 52.2082L45.9584 64.7082C45.3725 65.2934 44.5782 65.6221 43.7501 65.6221C42.9219 65.6221 42.1277 65.2934 41.5417 64.7082Z" fill="url(#paint0_linear_1_89)"/>
<defs>
<linearGradient id="paint0_linear_1_89" x1="91.6667" y1="73.4233" x2="41.617" y2="73.0023" gradientUnits="userSpaceOnUse">
<stop stop-color="#AB5BFB"/>
<stop offset="1" stop-color="#7690EA"/>
</linearGradient>
</defs>
</svg>
